<svg width="65" height="65" viewBox="0 0 65 65" fill="none" xmlns="http://www.w3.org/2000/svg">
<path d="M58.9062 10.1562H6.09375C4.97021 10.1562 4.0625 11.064 4.0625 12.1875V52.8125C4.0625 53.936 4.97021 54.8438 6.09375 54.8438H58.9062C60.0298 54.8438 60.9375 53.936 60.9375 52.8125V12.1875C60.9375 11.064 60.0298 10.1562 58.9062 10.1562ZM56.3672 17.1895V50.2734H8.63281V17.1895L6.88086 15.8247L9.37549 12.6191L12.0923 14.7329H52.9141L55.6309 12.6191L58.1255 15.8247L56.3672 17.1895ZM52.9141 14.7266L32.5 30.5957L12.0859 14.7266L9.36914 12.6128L6.87451 15.8184L8.62646 17.1831L30.3101 34.0425C30.9336 34.5269 31.7008 34.7899 32.4905 34.7899C33.2801 34.7899 34.0473 34.5269 34.6709 34.0425L56.3672 17.1895L58.1191 15.8247L55.6245 12.6191L52.9141 14.7266Z" fill="#E87613"/>
</svg>
