<svg width="84" height="84" viewBox="0 0 84 84" fill="none" xmlns="http://www.w3.org/2000/svg">
<path d="M77.216 24.2895C76.7976 22.7312 75.9773 21.3101 74.8371 20.1685C73.6969 19.0269 72.2769 18.2047 70.7191 17.7844C64.9852 16.2422 42 16.2422 42 16.2422C42 16.2422 19.0148 16.2422 13.2809 17.7762C11.7224 18.1952 10.3017 19.0169 9.1613 20.1587C8.02091 21.3005 7.20103 22.7223 6.78398 24.2812C5.25 30.0234 5.25 42 5.25 42C5.25 42 5.25 53.9766 6.78398 59.7105C7.62891 62.877 10.1227 65.3707 13.2809 66.2156C19.0148 67.7578 42 67.7578 42 67.7578C42 67.7578 64.9852 67.7578 70.7191 66.2156C73.8855 65.3707 76.3711 62.877 77.216 59.7105C78.75 53.9766 78.75 42 78.75 42C78.75 42 78.75 30.0234 77.216 24.2895ZM34.6992 52.9922V31.0078L53.7305 41.918L34.6992 52.9922Z" fill="#E87613"/>
</svg>
