<svg width="304" height="76" viewBox="0 0 304 76" fill="none" xmlns="http://www.w3.org/2000/svg">
<g clip-path="url(#clip0_2_75)">
<path d="M240.155 22.7614V75.8979H220.999V22.7614H240.155ZM264.859 22.6569L273.609 35.286L282.596 22.6569H302.345L283.188 47.915L304 75.794H282.833L272.309 61.3777L261.784 75.794H242.036L262.73 48.7486L243.693 22.6575H264.86L264.859 22.6569ZM195.93 20.9784C210.33 20.9784 214.647 30.9041 214.731 41.8534L214.733 42.1859V75.5452H195.575V47.0921L195.572 46.6646L195.566 46.2448L195.555 45.8333L195.541 45.4308C195.539 45.3647 195.536 45.2986 195.533 45.2325L195.514 44.8424C195.506 44.7151 195.499 44.5878 195.49 44.4606L195.463 44.0871C195.458 44.0259 195.452 43.9648 195.447 43.9037L195.413 43.5427L195.374 43.1906C194.831 38.608 193.058 36.2288 188.481 36.2288C183.053 36.2288 180.701 40.0164 180.117 46.0548L180.079 46.4847C180.008 47.3516 179.972 48.2636 179.967 49.2147L179.966 75.5452H160.809V47.3088L160.808 46.8771C160.808 46.8059 160.807 46.7347 160.806 46.664L160.799 46.2448L160.788 45.8333L160.773 45.4308L160.754 45.0365C160.751 44.9718 160.747 44.9071 160.744 44.8424L160.718 44.4606L160.688 44.0871L160.654 43.722C160.157 38.7921 158.348 36.2288 153.596 36.2288C147.391 36.2288 145.127 41.3666 145.083 49.2142L145.082 75.5452H125.925V22.4081H145.082V30.3905C147.92 24.5527 153.597 20.9784 161.519 20.9784C170.861 20.9784 175.709 25.2676 177.956 31.4628C180.794 25.5057 187.062 20.9784 195.93 20.9784H195.93ZM94.7435 19.2998C112.188 19.2998 121.517 31.2105 121.703 45.4367L121.705 45.869V51.2299H84.6925C85.1657 57.7826 89.8961 60.8802 95.6899 60.8802C100.826 60.8802 104.118 59.1399 105.908 55.0852L105.978 54.9236L121.351 56.3528C118.631 68.5057 108.934 75.2964 94.9804 75.2964C78.0704 75.2964 66.009 65.0501 66.009 48.1323C66.009 31.3334 78.3073 19.2998 94.7441 19.2998H94.7435ZM35.8423 0C55.1635 0 64.7651 9.196 64.7651 23.8854C64.7651 34.8727 58.0082 42.0381 48.8811 43.2327C56.5862 44.7854 61.0903 49.2041 61.9198 57.9221L62.0403 59.5252L62.1454 61.0238L62.2357 62.4263L62.2986 63.4832L62.3663 64.73L62.4019 65.4425L62.4512 66.573L62.4916 67.6418L62.5118 68.2551L62.5385 69.239L62.5622 70.3635L62.5706 70.9074L62.5854 72.482L62.5902 74.1255L62.5908 75.1082H42.6651C42.6651 74.6937 42.6687 74.2947 42.6734 73.9029L42.6853 73.1274L42.7197 71.2488L42.7286 70.6194L42.7346 69.9681L42.7352 69.632L42.7346 69.0009L42.7286 68.3388L42.7203 67.8187L42.7043 67.0914L42.6805 66.3195L42.6485 65.4995L42.6081 64.6255L42.5843 64.1672L42.5434 63.4505L42.4965 62.6976L42.424 61.6336L42.3611 60.7881C41.8101 52.7915 38.5938 50.5792 32.7115 50.3084L32.3279 50.2936L31.9372 50.2841C31.8046 50.2817 31.672 50.2801 31.5394 50.2793L0 50.2787V34.6334H32.2858C40.8203 34.6334 45.087 32.0174 45.087 25.0907C45.087 19 40.8203 15.3087 32.2858 15.3087H0V0H35.8417H35.8423ZM21.068 63.4452C23.6817 63.4452 24.776 64.8969 25.1649 66.2862L25.2071 66.4466L25.2261 66.5255L25.2587 66.6841L25.2866 66.8402L25.2985 66.9174L25.3181 67.07L25.3329 67.2196L25.3389 67.2926L25.3466 67.4369L25.349 67.507L25.3507 67.6436V75.1082H0V63.4452H21.068ZM94.5072 33.1206C89.7109 33.1206 87.001 35.4397 85.7042 38.8354L85.6069 39.0984L85.5154 39.3656C85.4264 39.6352 85.3462 39.9107 85.2732 40.1909L85.2031 40.4742C85.1586 40.6642 85.117 40.8553 85.0784 41.0501L85.0238 41.3422C85.0149 41.3915 85.006 41.4408 84.9983 41.4901L84.9508 41.7869L84.9288 41.9371H103.494C103.257 37.1711 100.183 33.12 94.5072 33.12V33.1206ZM240.273 0.838969V17.7573H220.881V0.838969H240.274H240.273Z" fill="#121212"/>
</g>
<defs>
<clipPath id="clip0_2_75">
<rect width="304" height="75.8979" fill="white"/>
</clipPath>
</defs>
</svg>
