<svg width="95" height="95" viewBox="0 0 95 95" fill="none" xmlns="http://www.w3.org/2000/svg">
<path d="M95 46.269C95 39.9752 87.119 34.01 75.0342 30.3129C77.8248 17.9985 76.5858 8.19771 71.1233 5.05875C69.7997 4.31743 68.3017 3.94429 66.785 3.97812V8.29271C67.6756 8.29271 68.3921 8.47083 68.9938 8.79937C71.626 10.3115 72.77 16.059 71.8794 23.4571C71.6656 25.2779 71.3173 27.1937 70.8898 29.1492C66.8429 28.174 62.7357 27.4692 58.5952 27.0394C56.1286 23.6364 53.4375 20.4018 50.54 17.3573C56.8535 11.491 62.7792 8.27687 66.8087 8.27687V3.95833C61.4808 3.95833 54.5102 7.75437 47.4604 14.3371C40.4146 7.79792 33.44 4.0375 28.116 4.0375V8.35208C32.1258 8.35208 38.0713 11.5504 44.3848 17.3771C41.6733 20.2271 38.9619 23.4571 36.385 27.0394C32.236 27.4644 28.1214 28.176 24.0706 29.169C23.6233 27.2333 23.2948 25.3571 23.0613 23.556C22.1508 16.154 23.275 10.4065 25.8915 8.87854C26.4694 8.53021 27.2254 8.37187 28.116 8.37187V4.05729C26.4931 4.05729 25.0167 4.40562 23.7421 5.13792C18.2994 8.27687 17.0802 18.054 19.8867 30.3327C7.84146 34.0535 0 39.995 0 46.269C0 52.5627 7.88104 58.5279 19.9658 62.221C17.1752 74.5394 18.4142 84.3402 23.8767 87.4752C25.1354 88.2115 26.6079 88.5598 28.2308 88.5598C33.5588 88.5598 40.5294 84.7637 47.5792 78.181C54.625 84.7242 61.5956 88.4806 66.9235 88.4806C68.4519 88.5129 69.9613 88.1386 71.2975 87.396C76.7402 84.261 77.9594 74.484 75.1529 62.2052C87.1585 58.5081 95 52.5429 95 46.269ZM69.7854 33.3529C69.0333 35.9411 68.1615 38.493 67.1729 41.0004C65.5546 37.8526 63.7777 34.7888 61.849 31.821C64.6 32.2287 67.2521 32.7315 69.7894 33.3529H69.7854ZM60.9188 53.9758C59.4106 56.5883 57.859 59.0702 56.2519 61.374C50.442 61.886 44.5987 61.8927 38.7877 61.3937C35.4546 56.6326 32.5396 51.592 30.0754 46.3283C32.5359 41.0523 35.4384 35.9939 38.7521 31.2075C44.5605 30.6944 50.4025 30.6864 56.2123 31.1837C57.8194 33.4875 59.3908 35.9496 60.899 38.5462C62.3715 41.0796 63.7094 43.6525 64.9285 46.2492C63.6958 48.8773 62.3582 51.455 60.9188 53.9758ZM67.1729 51.4583C68.2179 54.051 69.1125 56.6477 69.8448 59.1652C67.3115 59.7867 64.6356 60.3092 61.8687 60.7129C63.7895 57.7181 65.5597 54.6294 67.1729 51.4583ZM47.5396 72.1208C45.7385 70.2604 43.9375 68.1902 42.1562 65.9221C43.8979 66.0012 45.6792 66.0606 47.4802 66.0606C49.301 66.0606 51.1021 66.021 52.8635 65.9221C51.1219 68.1902 49.3208 70.2604 47.5396 72.1208ZM33.1312 60.7129C30.4623 60.3262 27.8127 59.8164 25.1908 59.185C25.9073 56.6873 26.7979 54.1104 27.8033 51.5375C28.599 53.0812 29.4342 54.6329 30.3446 56.1846C31.255 57.7323 32.1812 59.2444 33.1312 60.7129ZM47.4406 20.4171C49.2417 22.2775 51.0427 24.3477 52.824 26.6158C51.0823 26.5367 49.301 26.4773 47.5 26.4773C45.6792 26.4773 43.8781 26.5169 42.1167 26.6158C43.8583 24.3477 45.6594 22.2775 47.4406 20.4171ZM33.1115 31.825C31.1911 34.8133 29.4209 37.8954 27.8073 41.0598C26.7908 38.5362 25.8991 35.9641 25.1354 33.3529C27.6687 32.7512 30.3446 32.2287 33.1115 31.825ZM15.5879 56.0658C8.73208 53.1446 4.29875 49.309 4.29875 46.269C4.29875 43.229 8.73208 39.3735 15.5879 36.4721C17.2504 35.7556 19.0713 35.1144 20.9515 34.5167C22.0558 38.3088 23.5085 42.2592 25.3056 46.3085C23.6089 50.1172 22.174 54.0371 21.0108 58.041C19.172 57.4717 17.3622 56.8125 15.5879 56.0658ZM26.0063 83.7346C23.374 82.2304 22.23 76.475 23.1206 69.0808C23.3344 67.26 23.6827 65.3402 24.1102 63.3848C27.9023 64.315 32.0467 65.0315 36.4048 65.4985C38.8715 68.9015 41.5626 72.136 44.46 75.1806C38.1465 81.0469 32.2208 84.261 28.1912 84.261C27.431 84.2693 26.6805 84.0899 26.0063 83.7385V83.7346ZM71.9388 68.9819C72.8492 76.38 71.725 82.1315 69.1085 83.6594C68.5306 84.0077 67.7746 84.1621 66.884 84.1621C62.8742 84.1621 56.9287 80.9677 50.6152 75.1371C53.3267 72.295 56.0381 69.061 58.615 65.4787C62.764 65.0537 66.8786 64.3422 70.9294 63.3492C71.3767 65.3046 71.721 67.1808 71.9388 68.9819ZM79.3923 56.0658C77.7298 56.7823 75.909 57.4235 74.0287 58.0212C72.8451 53.9969 71.3904 50.0572 69.6746 46.2294C71.4558 42.2037 72.8848 38.2731 73.9694 34.4969C75.8892 35.0946 77.706 35.7556 79.4121 36.4721C86.2679 39.3933 90.7012 43.229 90.7012 46.269C90.6815 49.309 86.2481 53.1644 79.3923 56.0658Z" fill="black"/>
<path d="M47.4802 55.1198C49.8276 55.1198 52.0788 54.1873 53.7387 52.5274C55.3985 50.8676 56.331 48.6163 56.331 46.269C56.331 43.9216 55.3985 41.6703 53.7387 40.0105C52.0788 38.3506 49.8276 37.4181 47.4802 37.4181C45.1328 37.4181 42.8816 38.3506 41.2217 40.0105C39.5619 41.6703 38.6294 43.9216 38.6294 46.269C38.6294 48.6163 39.5619 50.8676 41.2217 52.5274C42.8816 54.1873 45.1328 55.1198 47.4802 55.1198Z" fill="black"/>
</svg>
