<svg width="126" height="126" viewBox="0 0 126 126" fill="none" xmlns="http://www.w3.org/2000/svg">
<g clip-path="url(#clip0_2_52)">
<path d="M63.4935 24.339C52.647 24.339 44.163 25.41 37.653 27.3315C37.8137 27.186 37.9729 27.039 38.1308 26.8905C38.3303 26.6963 37.8683 26.565 36.9338 26.5335C34.1303 26.439 27.132 27.2843 21.2363 30.2348C14.553 33.3795 -0.383245 49.896 5.01052e-06 50.8725C0.393755 51.8542 7.66501 57.9338 9.828 60.2963C11.2035 61.8713 15.33 75.831 19.068 73.4738C20.055 72.786 20.4593 70.056 20.8005 66.6855C21.105 69.2948 21.4043 72.0038 21.8138 74.4555C22.4018 78.3878 27.5205 81.5273 28.1138 85.2653C28.8383 90.5887 32.1038 94.311 38.5088 96.6788C41.0498 100.186 45.0083 98.4113 47.9588 100.007C52.6838 102.564 57.9863 101.383 63.2888 101.383C68.6018 101.383 73.71 102.359 78.6188 99.8078C81.648 98.2328 85.5488 99.9653 88.1213 96.7628C94.5525 94.4003 97.734 90.6518 98.4743 85.2653C99.0623 81.5273 103.976 78.3878 104.564 74.4555C104.9 72.4605 105.142 70.245 105.394 68.1398C105.693 70.7648 106.076 72.8858 106.922 73.4738C110.46 75.831 114.786 61.8713 116.162 60.2963C118.325 57.9338 125.596 51.8542 125.99 50.8725C126.378 49.8855 111.248 33.3743 104.57 30.2295C98.6685 27.279 91.6703 26.4338 88.8668 26.5283C87.99 26.5545 87.5805 26.6805 87.6855 26.8537C81.522 25.2367 73.6575 24.3338 63.483 24.3338L63.4935 24.339ZM63.651 26.964C75.2168 26.964 83.853 28.1453 89.9535 30.1928C90.6518 30.429 91.203 30.7072 91.833 30.9645C95.4555 34.7183 100.359 40.572 102.407 47.3288C102.538 47.7488 102.617 48.2003 102.737 48.6308V48.6728C102.974 52.7153 104.396 56.112 103.945 59.1203C103.142 64.3598 102.748 69.4785 101.987 74.0303L101.976 74.0513V74.0723C101.824 75.0803 100.832 76.5713 99.4665 78.309C98.0963 80.0415 96.3375 81.9945 95.886 84.861V84.8925L95.8755 84.9083C95.3505 88.7565 93.6705 91.2083 89.733 93.2137C90.3893 90.8828 90.8093 87.675 90.8093 82.908C91.0035 77.0123 91.2135 74.655 86.2943 68.7593C82.5664 63.9911 77.4415 60.5072 71.6363 58.7948C71.0535 56.7473 67.8458 54.4058 63.4935 54.4058C59.1413 54.4058 56.0648 56.6213 55.4348 58.7108C49.5156 60.3931 44.2837 63.9117 40.4933 68.7593C35.5793 74.655 35.9783 77.2118 35.9783 82.9133C35.9783 87.654 36.3983 90.8565 37.044 93.2033C33.0015 91.1873 31.2323 88.7093 30.7073 84.9083V84.8558C30.2505 81.9525 28.413 80.01 26.9955 78.2775C25.578 76.545 24.57 75.0383 24.423 74.0723L24.4125 74.0513V74.025C23.6565 69.4733 23.2575 64.365 22.4543 59.1255V59.115C22.008 56.1068 23.415 52.71 23.6565 48.6675V48.7463C23.7248 47.9955 23.7458 47.4863 23.7878 46.8038C25.6778 40.7138 29.841 35.3955 33.264 31.7048C34.4991 31.1224 35.7684 30.6157 37.065 30.1875C43.323 28.1348 52.08 26.9588 63.6458 26.9588L63.651 26.964ZM36.2933 46.935C34.01 46.9516 31.826 47.8707 30.2179 49.4916C28.6098 51.1125 27.7081 53.3037 27.7095 55.587C27.7095 56.723 27.9333 57.8478 28.3682 58.8972C28.8031 59.9466 29.4405 60.9 30.2439 61.703C31.0474 62.506 32.0012 63.1428 33.0509 63.5771C34.1006 64.0113 35.2256 64.2344 36.3615 64.2338C37.1457 64.2345 37.9264 64.1285 38.682 63.9188C40.5143 61.9448 42.4515 60.123 44.5148 58.4483C44.8394 57.5291 45.0062 56.5618 45.0083 55.587C45.0089 54.4511 44.7858 53.3261 44.3516 52.2764C43.9173 51.2267 43.2805 50.2729 42.4775 49.4694C41.6745 48.666 40.7211 48.0286 39.6717 47.5937C38.6223 47.1588 37.4975 46.935 36.3615 46.935C36.3388 46.9349 36.316 46.9349 36.2933 46.935ZM90.3525 46.935C88.0674 46.9489 85.8808 47.8667 84.2704 49.4879C82.66 51.1091 81.7568 53.3019 81.7583 55.587C81.7603 56.8266 82.0289 58.0513 82.5458 59.178C84.189 60.564 85.7588 62.0498 87.2445 63.63C88.2542 64.0285 89.33 64.2333 90.4155 64.2338C92.7079 64.2324 94.9058 63.3208 96.5263 61.6993C98.1467 60.0779 99.057 57.8794 99.057 55.587C99.0577 54.4515 98.8347 53.327 98.4008 52.2776C97.9669 51.2283 97.3306 50.2747 96.5281 49.4713C95.7257 48.6679 94.7729 48.0304 93.7241 47.5952C92.6753 47.16 91.551 46.9357 90.4155 46.935C90.3945 46.9349 90.3735 46.9349 90.3525 46.935ZM38.5298 49.4865C39.1016 49.4893 39.6491 49.7184 40.0524 50.1237C40.4558 50.5291 40.6823 51.0777 40.6823 51.6495C40.6823 52.2214 40.4558 52.7699 40.0524 53.1753C39.6491 53.5806 39.1016 53.8097 38.5298 53.8125C38.2453 53.8132 37.9634 53.7578 37.7004 53.6494C37.4374 53.541 37.1983 53.3818 36.9969 53.1808C36.7955 52.9799 36.6357 52.7412 36.5267 52.4785C36.4176 52.2157 36.3615 51.934 36.3615 51.6495C36.3615 51.365 36.4176 51.0833 36.5267 50.8205C36.6357 50.5578 36.7955 50.3191 36.9969 50.1182C37.1983 49.9173 37.4374 49.758 37.7004 49.6496C37.9634 49.5413 38.2453 49.4858 38.5298 49.4865ZM88.2473 49.4865C88.5317 49.4858 88.8136 49.5413 89.0766 49.6496C89.3396 49.758 89.5787 49.9173 89.7801 50.1182C89.9815 50.3191 90.1413 50.5578 90.2504 50.8205C90.3594 51.0833 90.4155 51.365 90.4155 51.6495C90.4155 51.9336 90.3596 52.2148 90.2509 52.4772C90.1422 52.7397 89.9828 52.9781 89.782 53.179C89.5811 53.3798 89.3427 53.5392 89.0802 53.6479C88.8178 53.7566 88.5366 53.8125 88.2525 53.8125C87.9685 53.8125 87.6872 53.7566 87.4248 53.6479C87.1623 53.5392 86.9239 53.3798 86.723 53.179C86.5222 52.9781 86.3629 52.7397 86.2542 52.4772C86.1455 52.2148 86.0895 51.9336 86.0895 51.6495C86.0895 51.0758 86.3174 50.5257 86.723 50.12C87.1287 49.7144 87.6788 49.4865 88.2525 49.4865H88.2473ZM61.425 57.288C61.48 57.2849 61.5328 57.2919 61.5825 57.309C61.7805 57.3724 61.9214 57.5901 61.9745 57.9146C62.0276 58.2392 61.9886 58.6442 61.866 59.0415C61.805 59.2392 61.7251 59.4289 61.6309 59.6C61.5367 59.7711 61.4299 59.9201 61.3168 60.0386C61.2037 60.1571 61.0865 60.2426 60.9717 60.2905C60.8569 60.3383 60.7469 60.3474 60.648 60.3173C60.4515 60.2516 60.3121 60.0329 60.26 59.7086C60.2079 59.3844 60.2474 58.9806 60.3698 58.5848C60.476 58.238 60.639 57.9196 60.8313 57.6834C61.0236 57.4471 61.2333 57.3075 61.425 57.288ZM64.953 57.4035C65.1503 57.3926 65.3694 57.5229 65.5682 57.7691C65.7669 58.0154 65.9312 58.3602 66.0293 58.737C66.1335 59.141 66.1534 59.5493 66.0845 59.8721C66.0156 60.195 65.8636 60.4061 65.6618 60.459C65.46 60.5113 65.2251 60.4015 65.0085 60.1535C64.792 59.9055 64.6116 59.5396 64.5068 59.136C64.4025 58.732 64.3826 58.3237 64.4515 58.0009C64.5204 57.678 64.6725 57.4669 64.8743 57.414C64.8999 57.4079 64.9262 57.4044 64.953 57.4035ZM63.294 59.9025C63.294 59.9025 63.4778 61.089 64.2653 61.4828C65.0528 61.8765 68.7908 60.6953 68.7908 60.6953C67.0215 62.0708 63.6825 62.076 63.6825 62.4698V64.428C63.6825 66.57 63.819 72.0983 63.5198 73.2743C67.8405 73.3005 74.4923 79.1858 74.4923 86.4413V86.835C74.2928 79.758 66.0398 74.0565 63.4883 74.0565C60.9315 74.0565 52.6733 79.5585 52.4738 86.835V86.4413C52.4738 79.2908 58.947 73.4738 63.273 73.2848C62.9055 70.392 62.8898 67.3155 62.8898 64.428V62.475C61.7715 61.9821 60.6208 61.5664 59.4458 61.2308C60.417 61.404 61.3935 61.4933 62.307 61.4933C63.0945 61.0943 63.294 59.9078 63.294 59.9078V59.9025ZM47.3288 66.99C47.3428 66.9896 47.3568 66.9896 47.3708 66.99C47.4742 66.99 47.5766 67.0104 47.6721 67.0499C47.7677 67.0895 47.8545 67.1475 47.9276 67.2207C48.0007 67.2938 48.0587 67.3806 48.0983 67.4761C48.1379 67.5717 48.1583 67.6741 48.1583 67.7775C48.159 67.8814 48.1391 67.9843 48.0998 68.0805C48.0606 68.1766 48.0027 68.2641 47.9295 68.3377C47.8563 68.4114 47.7692 68.4699 47.6733 68.5098C47.5774 68.5497 47.4746 68.5703 47.3708 68.5703C47.1619 68.5703 46.9616 68.4873 46.8139 68.3396C46.6662 68.1919 46.5833 67.9916 46.5833 67.7828C46.583 67.581 46.6602 67.3868 46.7989 67.2402C46.9376 67.0937 47.1273 67.006 47.3288 66.9953V66.99ZM53.2298 66.99C53.242 66.9897 53.2543 66.9897 53.2665 66.99C53.3699 66.99 53.4723 67.0104 53.5679 67.0499C53.6634 67.0895 53.7502 67.1475 53.8234 67.2207C53.8965 67.2938 53.9545 67.3806 53.9941 67.4761C54.0336 67.5717 54.054 67.6741 54.054 67.7775C54.0547 67.8814 54.0348 67.9843 53.9956 68.0805C53.9563 68.1766 53.8984 68.2641 53.8252 68.3377C53.752 68.4114 53.665 68.4699 53.5691 68.5098C53.4732 68.5497 53.3704 68.5703 53.2665 68.5703C53.0576 68.5703 52.8573 68.4873 52.7097 68.3396C52.562 68.1919 52.479 67.9916 52.479 67.7828C52.4788 67.5801 52.5567 67.3852 52.6965 67.2385C52.8363 67.0918 53.0273 67.0047 53.2298 66.9953V66.99ZM72.4973 66.99C72.5095 66.9897 72.5218 66.9897 72.534 66.99C72.6374 66.99 72.7398 67.0104 72.8354 67.0499C72.9309 67.0895 73.0177 67.1475 73.0909 67.2207C73.164 67.2938 73.222 67.3806 73.2616 67.4761C73.3011 67.5717 73.3215 67.6741 73.3215 67.7775C73.3222 67.8814 73.3023 67.9843 73.2631 68.0805C73.2238 68.1766 73.1659 68.2641 73.0927 68.3377C73.0195 68.4114 72.9325 68.4699 72.8366 68.5098C72.7407 68.5497 72.6379 68.5703 72.534 68.5703C72.3251 68.5703 72.1248 68.4873 71.9772 68.3396C71.8295 68.1919 71.7465 67.9916 71.7465 67.7828C71.7463 67.5801 71.8242 67.3852 71.964 67.2385C72.1038 67.0918 72.2948 67.0047 72.4973 66.9953V66.99ZM78.393 66.99C78.407 66.9896 78.421 66.9896 78.435 66.99C78.5384 66.99 78.6408 67.0104 78.7364 67.0499C78.8319 67.0895 78.9187 67.1475 78.9919 67.2207C79.065 67.2938 79.123 67.3806 79.1626 67.4761C79.2021 67.5717 79.2225 67.6741 79.2225 67.7775C79.2232 67.8814 79.2033 67.9843 79.1641 68.0805C79.1248 68.1766 79.0669 68.2641 78.9937 68.3377C78.9205 68.4114 78.8335 68.4699 78.7376 68.5098C78.6417 68.5497 78.5389 68.5703 78.435 68.5703C78.2262 68.5703 78.0258 68.4873 77.8782 68.3396C77.7305 68.1919 77.6475 67.9916 77.6475 67.7828C77.6472 67.581 77.7244 67.3868 77.8631 67.2402C78.0018 67.0937 78.1915 67.006 78.393 66.9953V66.99ZM48.7148 71.7098C48.7288 71.7094 48.7428 71.7094 48.7568 71.7098C48.9638 71.7125 49.1614 71.7967 49.3068 71.9441C49.4522 72.0915 49.5338 72.2902 49.5338 72.4973C49.5338 72.7043 49.4522 72.903 49.3068 73.0504C49.1614 73.1978 48.9638 73.282 48.7568 73.2848C48.5479 73.2848 48.3476 73.2018 48.1999 73.0541C48.0522 72.9064 47.9693 72.7061 47.9693 72.4973C47.969 72.2955 48.0462 72.1013 48.1849 71.9548C48.3236 71.8082 48.5133 71.7205 48.7148 71.7098ZM77.0175 71.7098C77.028 71.7095 77.0385 71.7095 77.049 71.7098C77.2579 71.7098 77.4582 71.7927 77.6059 71.9404C77.7535 72.0881 77.8365 72.2884 77.8365 72.4973C77.8365 72.7061 77.7535 72.9064 77.6059 73.0541C77.4582 73.2018 77.2579 73.2848 77.049 73.2848C76.8411 73.2834 76.6421 73.1998 76.4956 73.0523C76.349 72.9047 76.2668 72.7052 76.2668 72.4973C76.2665 72.2946 76.3444 72.0997 76.4843 71.953C76.6241 71.8063 76.8151 71.7192 77.0175 71.7098Z" fill="black"/>
</g>
<defs>
<clipPath id="clip0_2_52">
<rect width="126" height="126" fill="white"/>
</clipPath>
</defs>
</svg>
