<svg width="92" height="92" viewBox="0 0 92 92" fill="none" xmlns="http://www.w3.org/2000/svg">
<path d="M28.7577 0H38.64V4.13233H32.89V8.26467H38.64V12.397H28.7577V0Z" fill="black"/>
<path d="M40.6142 0H50.5003V3.59567H44.7503V4.3125H50.5003V12.5772H40.6142V8.80517H46.3642V8.0845H40.6142V0Z" fill="black"/>
<path d="M52.4783 0H62.3568V3.59567H56.6068V4.3125H62.3568V12.5772H52.4783V8.80517H58.2283V8.0845H52.4783V0Z" fill="black"/>
<path fill-rule="evenodd" clip-rule="evenodd" d="M45.9655 92L19.3468 84.6093L11.5 18.0818H80.5L72.657 84.6017L45.9655 92ZM27.0135 48.1965L27.7457 56.3538H56.0242L55.0773 66.9338L45.977 69.3948H45.9693L36.8843 66.9415L36.3017 60.4363H28.1098L29.2522 73.2473L45.9655 77.8857L62.7057 73.2473L64.745 50.3853L64.9443 48.1965L66.4163 31.6787H25.5453L26.289 39.8398H57.477L56.7333 48.1965H27.0135Z" fill="black"/>
</svg>
