<svg width="116" height="116" viewBox="0 0 116 116" fill="none" xmlns="http://www.w3.org/2000/svg">
<path d="M68.4518 16.748C66.3436 13.4297 67.0179 11.2416 68.1813 8.98252C69.2228 6.96023 69.6483 3.44579 65.9682 0.68014C69.3565 -0.567086 74.7031 1.63805 74.7951 5.67698C72.829 8.38213 67.4585 9.45717 68.4518 16.748ZM92.778 91.3128C91.1332 96.6448 91.8831 99.4818 84.7292 110.553C97.3782 102.013 103.346 90.9889 105.315 78.4765C106.552 83.694 106.669 88.4267 106.183 92.8986C116.665 79.0993 123.847 51.2727 99.69 23.3008C98.7183 35.665 86.7605 45.4004 72.9699 41.5831C96.6153 38.9765 98.131 8.90934 77.8174 1.96656C78.2142 10.3312 66.8015 7.59211 70.1578 18.7825C58.5333 12.2056 33.1355 10.8539 23.0387 20.832C17.8337 25.9758 14.2807 30.23 7.77541 30.5112C2.4043 30.7432 -4.68847 39.459 4.53987 43.9164C5.4212 47.6309 8.51877 49.7459 10.315 50.1104C9.86795 56.7249 11.2751 53.3525 13.3368 50.4693C12.644 58.8306 13.7859 55.8184 17.0171 51.5167C44.3564 45.9877 59.4546 68.2832 59.6254 81.9771C59.5053 79.4926 55.5334 76.603 53.4316 77.399C52.0115 80.4077 50.4641 82.9613 48.5544 84.2212C48.754 82.2263 48.6178 80.2314 48.2553 78.2368C47.6255 80.649 46.4399 83.1539 44.5449 85.777C40.7754 85.9875 35.4999 83.1838 37.0344 78.5361C39.1992 74.0162 34.9532 73.0764 31.5325 74.3703C28.9622 75.3427 27.2251 78.0356 26.9877 78.873C26.1301 81.8933 26.4122 88.6365 32.277 93.1079C30.7396 93.3911 29.1611 93.6435 28.0879 94.2747C38.0641 100.308 48.247 98.2697 53.9174 95.9929C63.2014 92.2653 69.6048 81.9474 70.6066 73.9881C73.1836 85.1834 68.5669 97.6258 58.2187 104.299C61.1753 104.612 66.9624 102.609 72.8802 100.499C68.4065 106.129 63.0589 111.468 54.2989 115.669C71.5534 114.224 84.1741 105.56 92.7783 91.3128" fill="black"/>
</svg>
