<svg width="255" height="154" viewBox="0 0 255 154" fill="none" xmlns="http://www.w3.org/2000/svg">
<path d="M60.169 40.1501H108.264V43.9757H64.5778V72.7657H105.66V76.5908H64.5778V108.2H108.765V112.025H60.169V40.1501ZM112.574 40.1501H117.683L140.328 71.759L163.474 40.1496L194.956 0L143.234 75.0812L169.887 112.025H164.576L140.328 78.4029L115.98 112.025H110.77L137.623 75.0807L112.573 40.1501H112.574ZM171.79 43.9757V40.1496H226.599V43.9752H201.349V112.024H196.94V43.9757H171.79ZM0 40.1496H5.51089L81.5029 153.942L50.0995 112.024L4.60893 45.586L4.40871 112.025H0V40.1496ZM226.155 107.044C225.254 107.044 224.579 106.347 224.579 105.444C224.579 104.542 225.254 103.843 226.155 103.843C227.067 103.843 227.731 104.541 227.731 105.444C227.731 106.346 227.067 107.044 226.155 107.044ZM230.487 102.833H232.846C232.878 104.111 233.811 104.971 235.184 104.971C236.717 104.971 237.586 104.047 237.586 102.317V91.3579H239.988V102.328C239.988 105.444 238.186 107.238 235.205 107.238C232.406 107.238 230.487 105.497 230.487 102.833V102.833ZM243.13 102.694H245.51C245.714 104.165 247.151 105.1 249.221 105.1C251.151 105.1 252.566 104.101 252.566 102.725C252.566 101.544 251.665 100.835 249.617 100.351L247.622 99.8678C244.823 99.2119 243.548 97.8583 243.548 95.5807C243.548 92.8196 245.8 90.9821 249.177 90.9821C252.319 90.9821 254.614 92.8191 254.753 95.4302H252.416C252.191 94.0013 250.946 93.1092 249.145 93.1092C247.247 93.1092 245.982 94.0227 245.982 95.4192C245.982 96.5256 246.797 97.16 248.813 97.6325L250.518 98.0517C253.692 98.7932 255 100.083 255 102.414C255 105.379 252.705 107.238 249.038 107.238C245.607 107.238 243.301 105.465 243.13 102.693V102.694Z" fill="black"/>
</svg>
