<svg width="89" height="89" viewBox="0 0 89 89" fill="none" xmlns="http://www.w3.org/2000/svg">
<path fill-rule="evenodd" clip-rule="evenodd" d="M0 0H89V89H0V0ZM68.0368 74.6117C63.9094 74.6117 61.5769 72.4608 59.7857 69.5312L52.9884 73.4806C55.4433 78.3311 60.4607 82.032 68.2296 82.032C76.1729 82.032 82.0877 77.9084 82.0877 70.3767C82.0877 63.394 78.0752 60.2901 70.9701 57.2381L68.8786 56.3444C65.2889 54.7869 63.7351 53.7745 63.7351 51.264C63.7351 49.2355 65.2926 47.6817 67.7401 47.6817C70.1394 47.6817 71.6858 48.6941 73.1209 51.264L79.6328 47.0847C76.8775 42.2379 73.0579 40.3875 67.7401 40.3875C60.2715 40.3875 55.4915 45.1638 55.4915 51.4383C55.4915 58.2431 59.4965 61.4656 65.5337 64.0355L67.6252 64.9329C71.441 66.6017 73.7142 67.6178 73.7142 70.4843C73.7142 72.8799 71.5004 74.6117 68.0368 74.6117ZM35.626 74.556C32.752 74.556 31.5542 72.5906 30.2415 70.2544L23.433 74.378C25.4058 78.5536 29.2847 82.0172 35.9782 82.0172C43.3912 82.0172 48.4679 78.0752 48.4679 69.4163V40.8621H40.1056V69.305C40.1056 73.4843 38.3701 74.556 35.6222 74.556H35.626Z" fill="black"/>
</svg>
