<svg width="94" height="94" viewBox="0 0 94 94" fill="none" xmlns="http://www.w3.org/2000/svg">
<path d="M0 47V94H94V0H0V47ZM75.7464 43.2518C77.9998 43.7823 80.0478 44.9631 81.6361 46.6475C82.4938 47.564 83.7775 49.2472 83.8862 49.6614C83.9156 49.7848 79.8324 52.5225 77.3532 54.0529C77.2621 54.1146 76.8949 53.7327 76.4954 53.1335C75.2881 51.3739 74.0162 50.6102 72.0745 50.4721C69.2281 50.2871 67.3921 51.7734 67.4068 54.2674C67.3919 54.8776 67.5281 55.4821 67.8034 56.0269C68.432 57.3283 69.6099 58.1067 73.2495 59.6841C79.9823 62.5746 82.8581 64.4869 84.647 67.1953C86.6504 70.2239 87.0939 75.059 85.7486 78.6692C84.2504 82.5702 80.5462 85.2316 75.3439 86.104C73.7371 86.3948 69.9125 86.3478 68.1823 86.0276C64.4047 85.3549 60.8239 83.4867 58.6207 81.0397C57.7483 80.0909 56.0651 77.597 56.1738 77.4296C56.2208 77.3679 56.6027 77.1241 57.0316 76.8773L60.5213 74.8563L63.2297 73.2818L63.7966 74.1219C64.5927 75.3292 66.3199 76.9831 67.3627 77.5324C70.3619 79.1245 74.4774 78.8954 76.5131 77.0741C77.3385 76.3867 77.7997 75.3293 77.738 74.26C77.738 73.1731 77.5999 72.6855 77.033 71.8718C76.2986 70.8319 74.8152 69.9448 70.5764 68.1089C65.7266 66.0115 63.6292 64.7278 61.7345 62.6628C60.5418 61.3035 59.6596 59.7006 59.1495 57.9657C58.797 56.635 58.7059 53.298 58.9821 51.9673C59.9779 47.2702 63.5264 44.0126 68.62 43.0491C70.2738 42.7289 74.1278 42.8493 75.7493 43.2488L75.7464 43.2518ZM53.6857 47.1851L53.7151 51.0244H41.4746V85.8014H32.8148V51.0244H20.5919V47.2614C20.5919 45.1641 20.6389 43.4221 20.6976 43.3751C20.7446 43.3134 28.1794 43.2841 37.2064 43.2987L53.6388 43.3457L53.6857 47.1851Z" fill="black"/>
</svg>
