<svg width="104" height="104" viewBox="0 0 104 104" fill="none" xmlns="http://www.w3.org/2000/svg">
<path d="M89.6122 13.7442C85.0335 7.09152 78.0835 2.44208 70.1869 0.748905C62.2902 -0.944269 54.045 0.447073 47.1412 4.63775L22.8833 20.059C19.6049 22.1126 16.7954 24.8332 14.6374 28.0438C12.4794 31.2545 11.0213 34.8833 10.3578 38.6945C9.17881 45.0993 10.1993 51.7147 13.2535 57.4665C11.1667 60.6033 9.76469 64.1448 9.139 67.86C8.45236 71.7342 8.54327 75.7064 9.40644 79.5451C10.2696 83.3839 11.8878 87.0126 14.1668 90.22C18.7567 96.8571 25.6993 101.5 33.5863 103.207C41.4734 104.913 49.7144 103.557 56.6377 99.411L80.912 83.9735C84.1786 81.9118 86.9767 79.1881 89.1258 75.9783C91.2748 72.7685 92.727 69.1437 93.3887 65.338C94.5539 58.9534 93.5277 52.3624 90.4768 46.6343C93.6298 41.6912 95.2323 35.918 95.0782 30.0569C94.9241 24.1959 93.0206 18.5149 89.6122 13.7442ZM44.72 91.559C40.9095 92.55 36.8864 92.3461 33.1957 90.9747C29.5049 89.6034 26.3247 87.131 24.0857 83.8923C21.2745 79.9987 20.2443 75.192 21.0568 70.4177L21.5312 68.1167L21.97 66.6933L23.2732 67.5578C26.1276 69.6949 29.337 71.3112 32.7535 72.332L33.6343 72.6375L33.5335 73.502C33.449 74.7045 33.8032 76.0565 34.4987 77.09C35.9222 79.1375 38.3922 80.119 40.7777 79.4755C41.301 79.3065 41.8112 79.1375 42.25 78.8645L66.4235 63.4432C67.6422 62.6632 68.4222 61.4965 68.7245 60.1088C68.9773 58.6885 68.6672 57.2256 67.86 56.03C67.1677 55.0578 66.1975 54.3177 65.0769 53.907C63.9562 53.4963 62.7376 53.4343 61.581 53.729C61.0578 53.9142 60.4987 54.119 60.0567 54.3888L50.9145 60.1932C46.7422 62.674 41.7845 63.4806 37.0409 62.4505C32.2974 61.4203 28.1208 58.6301 25.3533 54.6423C23.9705 52.7139 22.9883 50.528 22.4647 48.2137C21.9411 45.8993 21.8867 43.5035 22.3048 41.1677C22.7246 38.8549 23.6258 36.6561 24.9499 34.7139C26.274 32.7717 27.9915 31.1294 29.991 29.8935L54.1125 14.4722C55.6545 13.5292 57.3174 12.7999 59.0557 12.3045C62.8632 11.3168 66.8817 11.519 70.5708 12.8839C74.2598 14.2488 77.4423 16.7108 79.69 19.9387C81.2929 22.1954 82.3503 24.7932 82.7789 27.5278C83.2075 30.2624 82.9957 33.0592 82.16 35.698L81.7213 37.1377L80.47 36.2733C77.5818 34.1621 74.3611 32.5485 70.941 31.499L70.0765 31.2455L70.161 30.381C70.2415 29.0952 69.9028 27.8179 69.1958 26.741C68.5145 25.7564 67.5453 25.0067 66.4212 24.5947C65.297 24.1828 64.0729 24.1287 62.9167 24.44C62.4032 24.5836 61.9088 24.7888 61.4445 25.051L37.2222 40.6055C36.0035 41.418 35.2235 42.5522 34.97 43.9725C34.7165 45.3602 35.0545 46.8845 35.8345 48.0025C37.2222 50.05 39.7442 50.9145 42.081 50.3035C42.6089 50.1687 43.1162 49.9632 43.589 49.6925L52.832 43.8003C54.3483 42.8121 56.0111 42.0696 57.759 41.6C61.5693 40.6008 65.5951 40.8008 69.2876 42.1728C72.9801 43.5448 76.1598 46.022 78.3932 49.2668C79.7751 51.1865 80.7619 53.3615 81.2964 55.6657C81.8308 57.9699 81.9024 60.3572 81.5068 62.6892C81.1064 64.9959 80.2242 67.1922 78.9177 69.1348C77.6112 71.0775 75.9098 72.7228 73.9245 73.9635L49.751 89.349C48.1786 90.2993 46.4883 91.0391 44.7232 91.5493L44.72 91.559Z" fill="black"/>
</svg>
