<svg width="127" height="127" viewBox="0 0 127 127" fill="none" xmlns="http://www.w3.org/2000/svg">
<path d="M27.723 79.7084L38.1529 12.5995C38.2295 12.1025 38.4604 11.6421 38.813 11.2836C39.1656 10.9251 39.622 10.6865 40.1176 10.6017C40.6132 10.5168 41.123 10.59 41.5748 10.8108C42.0265 11.0316 42.3974 11.389 42.6349 11.8322L53.8533 32.8877L27.723 79.7084ZM101.812 95.9908L91.8792 34.2318C91.8044 33.7996 91.6127 33.3961 91.3249 33.065C91.0371 32.734 90.6642 32.4881 90.2465 32.354C89.8289 32.2198 89.3825 32.2026 88.9558 32.3042C88.529 32.4057 88.1382 32.6222 87.8258 32.93L25.1883 95.9908L59.8487 115.522C62.0236 116.739 64.6747 116.739 66.8496 115.522L101.812 95.9908ZM73.6441 42.0952L65.6167 26.7335C65.4137 26.3479 65.1093 26.025 64.7363 25.7998C64.3632 25.5745 63.9358 25.4555 63.5 25.4555C63.0642 25.4555 62.6367 25.5745 62.2637 25.7998C61.8907 26.025 61.5863 26.3479 61.3833 26.7335L26.1355 89.9001L73.6441 42.0952Z" fill="black"/>
</svg>
